<svg xmlns="http://www.w3.org/2000/svg" width="58" height="58" viewBox="0 0 58 58"><defs><style>.a,.b{fill:none;}.b{stroke:#9102f3;stroke-linecap:round;stroke-linejoin:round;stroke-width:4px;}</style></defs><path class="a" d="M0,0H58V58H0Z"/><path class="b" d="M14,3v9.667a2.417,2.417,0,0,0,2.417,2.417h9.667" transform="translate(19.833 4.25)"/><path class="b" d="M34,46.5H9.833A4.833,4.833,0,0,1,5,41.667V7.833A4.833,4.833,0,0,1,9.833,3H26.75L38.833,15.083V41.667A4.833,4.833,0,0,1,34,46.5Z" transform="translate(7.083 4.25)"/><path class="b" d="M11,14h2.417v9.667h2.417" transform="translate(15.583 19.833)"/><path class="b" d="M12,11h.024" transform="translate(16.266 16.318)"/></svg>