<svg xmlns="http://www.w3.org/2000/svg" width="50" height="50" viewBox="0 0 50 50"><defs><style>.a{fill:#9102f3;}.b{fill:#fff;}</style></defs><g transform="translate(-367 -585)"><circle class="a" cx="25" cy="25" r="25" transform="translate(367 585)"/><g transform="translate(375 593)"><g transform="translate(2.771 2.771)"><path class="b" d="M8.3,26.551A1,1,0,1,1,9.1,24.715,11.857,11.857,0,1,0,4.326,20.9a1,1,0,0,1-1.612,1.193A13.832,13.832,0,1,1,8.3,26.551Zm3.926-7.2a1.681,1.681,0,0,1-1.478-.9,6.154,6.154,0,0,1-.318-1.2c0-.012,0-.019,0-.02a22.769,22.769,0,0,1-.2-3.377,21.624,21.624,0,0,1,.226-3.5,7.78,7.78,0,0,1,.244-.979,1.664,1.664,0,0,1,.743-.819,1.763,1.763,0,0,1,.826-.2h.025a4.4,4.4,0,0,1,1.1.309,20.387,20.387,0,0,1,5.455,3.68l.11.117c.125.131.291.311.329.359a1.688,1.688,0,0,1,.357,1.035,1.665,1.665,0,0,1-.318.981c-.05.067-.264.3-.394.44l-.067.072a20.83,20.83,0,0,1-5.331,3.643,5.143,5.143,0,0,1-1.253.363Zm.2-8.641a20.608,20.608,0,0,0-.193,3.14,21.11,21.11,0,0,0,.178,3.051c.015.091.041.223.07.344l.162-.062.009,0c.04-.015.076-.029.1-.041a19.082,19.082,0,0,0,4.638-3.161.623.623,0,0,0,.08-.082l.007-.007a.313.313,0,0,1,.035-.036.075.075,0,0,1-.01-.01l-.01-.01-.116-.123a19.032,19.032,0,0,0-4.719-3.181c-.042-.017-.108-.042-.183-.07C12.443,10.58,12.427,10.661,12.417,10.715Z"/></g></g></g></svg>